HIERARCHY
ROOT Hips
{
    OFFSET 0.000000 0.000000 0.000000
    CHANNELS 6 Xposition Yposition Zposition Zrotation Xrotation Yrotation
    JOINT Spine
    {
        OFFSET -0.000000 14.517291 0.000000
        CHANNELS 3 Zrotation Xrotation Yrotation
        JOINT Spine1
        {
            OFFSET -0.000000 37.558300 0.000000
            CHANNELS 3 Zrotation Xrotation Yrotation
            JOINT Neck
            {
                OFFSET -0.000000 37.404057 3.400369
                CHANNELS 3 Zrotation Xrotation Yrotation
                JOINT Head
                {
                    OFFSET -0.000000 24.785618 -3.540803
                    CHANNELS 3 Zrotation Xrotation Yrotation
                    End Site
                    {
                        OFFSET -0.000000 35.408028 0.000000
                    }
                }
            }
            JOINT LeftShoulder
            {
                OFFSET 6.992933 33.973492 -0.192664
                CHANNELS 3 Zrotation Xrotation Yrotation
                JOINT LeftArm
                {
                    OFFSET 21.527611 0.000000 0.000000
                    CHANNELS 3 Zrotation Xrotation Yrotation
                    JOINT LeftForeArm
                    {
                        OFFSET 56.353916 0.000000 0.000000
                        CHANNELS 3 Zrotation Xrotation Yrotation
                        JOINT LeftHand
                        {
                            OFFSET 47.774071 0.000000 0.000000
                            CHANNELS 3 Zrotation Xrotation Yrotation
                            End Site
                            {
                                OFFSET 26.556021 0.000000 0.000000
                            }
                        }
                    }
                }
            }
            JOINT RightShoulder
            {
                OFFSET -7.065357 33.973492 -0.192664
                CHANNELS 3 Zrotation Xrotation Yrotation
                JOINT RightArm
                {
                    OFFSET -21.527611 0.000000 0.000000
                    CHANNELS 3 Zrotation Xrotation Yrotation
                    JOINT RightForeArm
                    {
                        OFFSET -56.353916 0.000000 0.000000
                        CHANNELS 3 Zrotation Xrotation Yrotation
                        JOINT RightHand
                        {
                            OFFSET -47.774071 0.000000 0.000000
                            CHANNELS 3 Zrotation Xrotation Yrotation
                            End Site
                            {
                                OFFSET -26.556021 0.000000 0.000000
                            }
                        }
                    }
                }
            }
        }
    }
    JOINT LeftUpLeg
    {
        OFFSET 17.704014 0.000000 0.000000
        CHANNELS 3 Zrotation Xrotation Yrotation
        JOINT LeftLeg
        {
            OFFSET -0.000000 -81.181816 0.000000
            CHANNELS 3 Zrotation Xrotation Yrotation
            JOINT LeftFoot
            {
                OFFSET -0.000000 -62.821102 0.000000
                CHANNELS 3 Zrotation Xrotation Yrotation
                JOINT LeftToeBase
                {
                    OFFSET -0.000000 -11.507608 26.556021
                    CHANNELS 3 Zrotation Xrotation Yrotation
                    End Site
                    {
                        OFFSET -0.000000 0.000000 7.081605
                    }
                }
            }
        }
    }
    JOINT RightUpLeg
    {
        OFFSET -17.704014 0.000000 0.000000
        CHANNELS 3 Zrotation Xrotation Yrotation
        JOINT RightLeg
        {
            OFFSET -0.000000 -81.181816 0.000000
            CHANNELS 3 Zrotation Xrotation Yrotation
            JOINT RightFoot
            {
                OFFSET -0.000000 -62.821102 0.000000
                CHANNELS 3 Zrotation Xrotation Yrotation
                JOINT RightToeBase
                {
                    OFFSET -0.000000 -11.507608 26.556021
                    CHANNELS 3 Zrotation Xrotation Yrotation
                    End Site
                    {
                        OFFSET -0.000000 0.000000 7.081605
                    }
                }
            }
        }
    }
}
MOTION
Frames:    13
Frame Time:    0.008333
26.088787    156.167633    -35.675728    0.789358    -1.182115    -44.940720    1.389074    -1.690614    1.300917    -0.928374    4.940797    0.465312    21.470881    0.568274    16.667677    -13.973219    4.784522    12.857897    11.964290    0.702890    -16.718246    -14.754197    -16.671005    -42.471306    6.858175    -37.016468    -34.257370    -27.290886    -25.984066    -42.525543    -2.636812    7.692183    -4.277298    32.890289    11.274124    42.052471    10.820428    -5.609667    115.738327    3.017750    -22.031467    16.479635    17.155451    -18.719488    4.552420    -11.490948    18.109179    -3.599937    -8.229615    0.375165    37.910126    0.000000    0.000000    0.000000    -15.971052    1.587486    -6.176102    6.874722    27.475458    -2.391505    5.178727    -21.452660    -16.936302    0.000000    0.000000    0.000000    
26.100117    156.169464    -35.660427    0.797201    -1.171155    -44.928101    1.410261    -1.688986    1.350900    -0.884844    4.913078    0.479746    21.378300    0.496008    16.646564    -13.911567    4.841701    12.848696    11.924848    0.699873    -16.738478    -14.784014    -16.663076    -42.542824    6.868816    -37.060104    -34.253456    -27.316990    -26.016848    -42.540886    -2.589706    7.760096    -4.203311    33.143993    11.340638    43.299351    10.335399    -6.743202    115.316612    3.241192    -22.189007    16.641285    17.152119    -18.737833    4.562935    -11.496645    18.112921    -3.594504    -8.217317    0.381470    37.897285    0.000000    0.000000    0.000000    -15.966865    1.590706    -6.215079    6.847980    27.453817    -2.382939    5.207076    -21.445791    -16.924383    0.000000    0.000000    0.000000    
26.114105    156.174744    -35.644985    0.809677    -1.160704    -44.915531    1.426478    -1.689115    1.415773    -0.836195    4.880535    0.498967    21.312283    0.440988    16.618319    -13.895228    4.888223    12.825637    11.863963    0.687600    -16.782986    -14.802508    -16.649748    -42.614567    6.896055    -37.076363    -34.231388    -27.348667    -26.011679    -42.561913    -2.552989    7.856778    -4.122138    33.398872    11.341368    44.535603    9.871917    -7.826825    114.882523    3.421436    -22.353327    16.744730    17.142704    -18.759073    4.569220    -11.493416    18.121058    -3.611088    -8.217908    0.378649    37.892155    0.000000    0.000000    0.000000    -15.970694    1.599375    -6.232703    6.839732    27.409199    -2.374007    5.202867    -21.428701    -16.930990    0.000000    0.000000    0.000000    
26.129383    156.178925    -35.633251    0.819212    -1.144688    -44.910526    1.447656    -1.694594    1.475767    -0.781048    4.856667    0.516419    21.211040    0.367568    16.589567    -13.828780    4.945657    12.810128    11.799716    0.676211    -16.817377    -14.833796    -16.653257    -42.679100    6.884330    -37.094372    -34.244511    -27.347109    -26.038027    -42.550282    -2.552556    7.949776    -4.009136    33.600822    11.421397    45.739635    9.312224    -9.035715    114.443108    3.750473    -22.487082    16.918108    17.142729    -18.781090    4.581742    -11.494975    18.126207    -3.612454    -8.216666    0.381074    37.883411    0.000000    0.000000    0.000000    -15.967360    1.594657    -6.250511    6.826698    27.382669    -2.371891    5.221020    -21.420460    -16.924658    0.000000    0.000000    0.000000    
26.145208    156.186768    -35.618061    0.833324    -1.130874    -44.905865    1.479309    -1.725243    1.529693    -0.752309    4.869780    0.532964    21.131939    0.315898    16.564346    -13.794904    4.971688    12.792234    11.739205    0.649323    -16.835079    -14.868741    -16.762686    -42.704357    6.659419    -36.978363    -34.386795    -27.265797    -25.993410    -42.545353    -2.562348    8.017076    -3.878689    33.790981    11.496542    46.942173    8.757469    -10.225774    113.943085    4.113675    -22.610220    17.141006    17.136980    -18.798670    4.597383    -11.493670    18.122732    -3.629539    -8.210492    0.387638    37.877182    0.000000    0.000000    0.000000    -15.970790    1.588634    -6.272670    6.811124    27.355255    -2.355517    5.231527    -21.394428    -16.919994    0.000000    0.000000    0.000000    
26.163191    156.195068    -35.607552    0.849842    -1.107418    -44.903564    1.515545    -1.751991    1.577620    -0.714033    4.878396    0.547056    20.987234    0.214721    16.539528    -13.673293    5.027408    12.787441    11.662539    0.607534    -16.824902    -14.865179    -16.724625    -42.774822    6.661338    -36.997631    -34.387707    -27.272686    -26.007744    -42.562023    -2.606899    8.036524    -3.751624    33.945393    11.615833    48.126808    8.184688    -11.369665    113.431610    4.338235    -22.704878    17.314514    17.139410    -18.827126    4.609397    -11.501679    18.119545    -3.622908    -8.204752    0.396752    37.884983    0.000000    0.000000    0.000000    -15.965478    1.572251    -6.288062    6.795784    27.322811    -2.366444    5.237515    -21.359695    -16.908867    0.000000    0.000000    0.000000    
26.181116    156.205078    -35.596912    0.865462    -1.089779    -44.899784    1.546776    -1.767033    1.631012    -0.688914    4.878171    0.563531    20.879877    0.120277    16.510750    -13.579567    5.076174    12.770696    11.616886    0.582990    -16.810207    -14.890050    -16.712629    -42.874214    6.659301    -37.005310    -34.387890    -27.297752    -26.003052    -42.579819    -2.621166    8.073125    -3.606124    34.100624    11.596611    49.262955    7.740689    -12.330466    112.927155    4.497226    -22.843527    17.465038    17.136133    -18.847635    4.601453    -11.506364    18.108181    -3.634390    -8.197099    0.406225    37.893841    0.000000    0.000000    0.000000    -15.966331    1.558012    -6.297802    6.792072    27.299198    -2.376611    5.253663    -21.341530    -16.903072    0.000000    0.000000    0.000000    
26.195436    156.216476    -35.585457    0.876418    -1.073298    -44.898930    1.565846    -1.761043    1.687656    -0.646668    4.842326    0.580314    20.807648    0.044535    16.482840    -13.537203    5.133208    12.749088    11.565785    0.573615    -16.818966    -14.890826    -16.670757    -42.941700    6.671806    -37.028683    -34.406105    -27.302465    -26.020691    -42.589268    -2.638879    8.120035    -3.482699    34.310787    11.479158    50.381359    7.414314    -13.027121    112.428146    4.535291    -22.934561    17.558649    17.130959    -18.860867    4.611434    -11.498768    18.092146    -3.624794    -8.202800    0.422116    37.886337    0.000000    0.000000    0.000000    -15.962954    1.549844    -6.291289    6.790904    27.266541    -2.398577    5.264041    -21.311455    -16.902290    0.000000    0.000000    0.000000    
26.212608    156.227814    -35.579597    0.887872    -1.049479    -44.904404    1.583008    -1.756836    1.757664    -0.596037    4.798702    0.601198    20.736109    -0.020779    16.446594    -13.490488    5.179193    12.719785    11.521445    0.567051    -16.857378    -14.901736    -16.639378    -42.997112    6.698303    -37.028172    -34.415516    -27.293552    -26.019297    -42.574360    -2.651288    8.115060    -3.356058    34.342525    11.587792    51.490726    6.998319    -14.064616    111.952354    4.739469    -23.216732    17.666992    17.135059    -18.880762    4.621413    -11.492080    18.085028    -3.631452    -8.211552    0.424352    37.890804    0.000000    0.000000    0.000000    -15.950762    1.524294    -6.290345    6.771658    27.247505    -2.406723    5.271980    -21.274035    -16.887524    0.000000    0.000000    0.000000    
26.226728    156.236862    -35.571159    0.899281    -1.033370    -44.907284    1.587403    -1.754601    1.816061    -0.527096    4.757099    0.617647    20.675188    -0.044479    16.415607    -13.498906    5.194556    12.693335    11.463269    0.581643    -16.889662    -14.814292    -16.405088    -42.973610    6.915022    -37.165726    -34.454472    -27.311947    -26.110495    -42.550739    -2.691671    8.110667    -3.221285    34.408501    11.657088    52.546078    6.838139    -14.989002    111.554192    5.125447    -23.726248    18.175364    17.133289    -18.892704    4.620731    -11.493063    18.067789    -3.626236    -8.217004    0.432620    37.895771    0.000000    0.000000    0.000000    -15.946384    1.508126    -6.292055    6.759383    27.232616    -2.381534    5.283230    -21.256233    -16.915178    0.000000    0.000000    0.000000    
26.241922    156.246506    -35.564655    0.906112    -1.019315    -44.908291    1.601753    -1.767011    1.868850    -0.468889    4.756134    0.632668    20.594044    -0.078979    16.393723    -13.480304    5.190308    12.677810    11.409365    0.571417    -16.918383    -14.769497    -16.211828    -43.109070    7.336162    -37.341038    -34.134735    -27.535345    -26.110783    -42.615231    -2.756042    8.043416    -3.076454    34.490036    11.705986    53.609253    6.549791    -15.794564    111.093544    5.226976    -24.006559    18.195576    17.132490    -18.902420    4.622524    -11.488857    18.053734    -3.619894    -8.215635    0.446884    37.888191    0.000000    0.000000    0.000000    -15.941321    1.503013    -6.265540    6.771383    27.194052    -2.408487    5.281776    -21.226452    -16.932907    0.000000    0.000000    0.000000    
26.252377    156.251404    -35.558395    0.911806    -1.010767    -44.913124    1.602029    -1.767204    1.922365    -0.395465    4.741260    0.647440    20.494759    -0.131411    16.363478    -13.433981    5.216591    12.659317    11.349597    0.569151    -16.942316    -14.805937    -16.440334    -43.119698    6.951916    -37.111805    -34.315708    -27.396999    -25.995283    -42.632267    -2.826587    7.977340    -2.927997    34.607449    11.676391    54.626766    6.298080    -16.453146    110.632195    5.388561    -24.191887    18.334572    17.131346    -18.906706    4.623533    -11.496605    18.043303    -3.599581    -8.199348    0.451382    37.882706    0.000000    0.000000    0.000000    -15.935544    1.498535    -6.255689    6.751776    27.179607    -2.371531    5.289492    -21.223780    -16.964315    0.000000    0.000000    0.000000    
26.263580    156.255569    -35.552685    0.918327    -1.004287    -44.912167    1.599288    -1.754441    1.980076    -0.324567    4.708476    0.663724    20.393929    -0.188178    16.319941    -13.379466    5.241086    12.626981    11.298373    0.574057    -16.973148    -14.781329    -16.397232    -43.163727    6.988337    -37.140259    -34.307178    -27.417328    -26.003445    -42.658150    -2.896513    7.914925    -2.792644    34.744789    11.523780    55.609879    6.142552    -16.892351    110.171661    5.467581    -24.314346    18.500263    17.126015    -18.913990    4.631558    -11.490326    18.035912    -3.608952    -8.208402    0.455730    37.888920    0.000000    0.000000    0.000000    -15.936699    1.500914    -6.249826    6.755060    27.148901    -2.410064    5.285936    -21.207685    -16.941282    0.000000    0.000000    0.000000    
